# xmcd
#
# Track frame offsets: 
#        150
#        12152
#        23357
#        34474
#        44355
#        55001
#        70495
#        81592
#        92577
#        101751
#        110883
#
# Disc length: 1812 seconds
#
# Revision: 1
# Processed by: cddbd v1.5.2PL0 Copyright (c) Steve Scherf et al.
# Submitted via: ExactAudioCopyFreeDBPlugin 1.0
#
DISCID=9007120b
DTITLE=Ann Reed - Carpediem
DYEAR=1981
DGENRE=Folk
TTITLE0=Can't Be Easy
TTITLE1=Jessie
TTITLE2=Looks Like You
TTITLE3=Slimy Cat
TTITLE4=Swing Tune 
TTITLE5=Carperdiem
TTITLE6=It Might Happen
TTITLE7=Next Time
TTITLE8=Melinda
TTITLE9=Milwaukee
TTITLE10=Lisa's Song
EXTD=
EXTT0=
EXTT1=
EXTT2=
EXTT3=
EXTT4=
EXTT5=
EXTT6=
EXTT7=
EXTT8=
EXTT9=
EXTT10=
PLAYORDER=
